# Blender v2.91.0 OBJ File: 'untitled.blend'
# www.blender.org
mtllib arrow.mtl
o Cylinder.001_Cylinder.004
v -1.849960 0.313815 -3.102179
v -1.849019 0.318189 -3.136271
v -1.851351 0.313856 -3.102266
v -1.852691 0.313993 -3.102340
v -1.853929 0.314221 -3.102398
v -1.855018 0.314531 -3.102439
v -1.855915 0.314911 -3.102461
v -1.856586 0.315346 -3.102462
v -1.857005 0.315821 -3.102444
v -1.857156 0.316316 -3.102406
v -1.857034 0.316813 -3.102350
v -1.856643 0.317292 -3.102278
v -1.855997 0.317735 -3.102194
v -1.855123 0.318125 -3.102099
v -1.854053 0.318447 -3.101999
v -1.852829 0.318689 -3.101896
v -1.851497 0.318841 -3.101794
v -1.850109 0.318898 -3.101699
v -1.848719 0.318857 -3.101612
v -1.847378 0.318720 -3.101538
v -1.846140 0.318492 -3.101480
v -1.845052 0.318182 -3.101439
v -1.844155 0.317802 -3.101417
v -1.843484 0.317366 -3.101415
v -1.843065 0.316892 -3.101434
v -1.842913 0.316397 -3.101472
v -1.843036 0.315900 -3.101528
v -1.843427 0.315421 -3.101599
v -1.844072 0.314978 -3.101684
v -1.844947 0.314588 -3.101778
v -1.846017 0.314266 -3.101879
v -1.847241 0.314024 -3.101982
v -1.848572 0.313871 -3.102083
v -1.850985 0.311975 -3.067561
v -1.849969 0.313808 -3.101893
v -1.851360 0.313849 -3.101979
v -1.852376 0.312016 -3.067648
v -1.852700 0.313986 -3.102053
v -1.853716 0.312153 -3.067722
v -1.853938 0.314214 -3.102112
v -1.854954 0.312381 -3.067780
v -1.855026 0.314524 -3.102153
v -1.856042 0.312691 -3.067821
v -1.855923 0.314904 -3.102175
v -1.856939 0.313071 -3.067843
v -1.856594 0.315340 -3.102176
v -1.857610 0.313507 -3.067844
v -1.857014 0.315815 -3.102158
v -1.858029 0.313982 -3.067826
v -1.857165 0.316310 -3.102120
v -1.858181 0.314477 -3.067788
v -1.857043 0.316806 -3.102064
v -1.858058 0.314973 -3.067732
v -1.856651 0.317285 -3.101992
v -1.857667 0.315452 -3.067661
v -1.856006 0.317729 -3.101908
v -1.857022 0.315895 -3.067576
v -1.855132 0.318119 -3.101813
v -1.856148 0.316286 -3.067482
v -1.854062 0.318441 -3.101713
v -1.855078 0.316608 -3.067381
v -1.852838 0.318683 -3.101610
v -1.853853 0.316850 -3.067278
v -1.851506 0.318835 -3.101508
v -1.852522 0.317002 -3.067177
v -1.850118 0.318892 -3.101413
v -1.851134 0.317059 -3.067081
v -1.848727 0.318851 -3.101326
v -1.849743 0.317018 -3.066994
v -1.847387 0.318714 -3.101252
v -1.848403 0.316880 -3.066920
v -1.846149 0.318486 -3.101194
v -1.847165 0.316653 -3.066862
v -1.845061 0.318176 -3.101153
v -1.846076 0.316343 -3.066821
v -1.844164 0.317796 -3.101131
v -1.845179 0.315963 -3.066799
v -1.843493 0.317360 -3.101129
v -1.844508 0.315527 -3.066797
v -1.843073 0.316885 -3.101148
v -1.844089 0.315052 -3.066816
v -1.842922 0.316390 -3.101186
v -1.843938 0.314557 -3.066854
v -1.843045 0.315894 -3.101242
v -1.844060 0.314061 -3.066910
v -1.843436 0.315415 -3.101313
v -1.844452 0.313582 -3.066981
v -1.844081 0.314972 -3.101398
v -1.845097 0.313138 -3.067066
v -1.844955 0.314581 -3.101492
v -1.845971 0.312748 -3.067161
v -1.846025 0.314259 -3.101593
v -1.847041 0.312426 -3.067261
v -1.847250 0.314017 -3.101696
v -1.848265 0.312184 -3.067364
v -1.848581 0.313865 -3.101797
v -1.849597 0.312032 -3.067465
v -1.857450 0.300308 -2.849042
v -1.856062 0.300364 -2.848946
v -1.864495 0.302314 -2.849307
v -1.864646 0.302809 -2.849269
v -1.868609 0.295656 -2.715303
v -1.868458 0.295161 -2.715340
v -1.853506 0.300759 -2.848742
v -1.852436 0.301081 -2.848641
v -1.854730 0.300517 -2.848845
v -1.850403 0.302890 -2.848335
v -1.850555 0.303385 -2.848297
v -1.851645 0.304295 -2.848280
v -1.852542 0.304675 -2.848302
v -1.851562 0.301471 -2.848547
v -1.850917 0.301914 -2.848462
v -1.850974 0.303859 -2.848279
v -1.861543 0.304940 -2.848862
v -1.862613 0.304618 -2.848962
v -1.853630 0.304985 -2.848343
v -1.854868 0.305213 -2.848401
v -1.857599 0.305391 -2.848562
v -1.858987 0.305334 -2.848657
v -1.860319 0.305182 -2.848759
v -1.863404 0.301404 -2.849324
v -1.862507 0.301024 -2.849302
v -1.863487 0.304228 -2.849057
v -1.864132 0.303785 -2.849142
v -1.861419 0.300714 -2.849261
v -1.860181 0.300486 -2.849203
v -1.864075 0.301839 -2.849325
v -1.858841 0.300349 -2.849128
v -1.850525 0.302393 -2.848391
v -1.856208 0.305350 -2.848475
v -1.864524 0.303306 -2.849213
v -1.854488 0.295240 -2.714424
v -1.854880 0.294761 -2.714496
v -1.855888 0.292943 -2.680453
v -1.855496 0.293422 -2.680381
v -1.860171 0.298197 -2.714509
v -1.861562 0.298238 -2.714595
v -1.855525 0.294318 -2.714581
v -1.858831 0.298060 -2.714435
v -1.865382 0.293561 -2.715295
v -1.864144 0.293333 -2.715236
v -1.855608 0.297142 -2.714314
v -1.856505 0.297522 -2.714335
v -1.866576 0.297465 -2.714996
v -1.867450 0.297075 -2.715091
v -1.860025 0.293211 -2.714980
v -1.858693 0.293364 -2.714879
v -1.854937 0.296706 -2.714312
v -1.854366 0.295737 -2.714368
v -1.862950 0.298181 -2.714691
v -1.868038 0.294686 -2.715359
v -1.862804 0.293196 -2.715162
v -1.861413 0.293155 -2.715076
v -1.857469 0.293606 -2.714776
v -1.856399 0.293928 -2.714675
v -1.857593 0.297832 -2.714376
v -1.868095 0.296632 -2.715175
v -1.867367 0.294251 -2.715357
v -1.866471 0.293871 -2.715336
v -1.864282 0.298029 -2.714792
v -1.854518 0.296232 -2.714330
v -1.868487 0.296153 -2.715247
v -1.865506 0.297787 -2.714895
v -1.858477 0.291788 -2.680732
v -1.857407 0.292110 -2.680632
v -1.865152 0.291515 -2.681193
v -1.863812 0.291378 -2.681119
v -1.857513 0.295704 -2.680292
v -1.858601 0.296014 -2.680333
v -1.868458 0.295257 -2.681047
v -1.869103 0.294814 -2.681132
v -1.868375 0.292433 -2.681314
v -1.867478 0.292053 -2.681293
v -1.859701 0.291546 -2.680835
v -1.855374 0.293919 -2.680325
v -1.855525 0.294414 -2.680287
v -1.863958 0.296364 -2.680648
v -1.865290 0.296211 -2.680749
v -1.869046 0.292869 -2.681316
v -1.869495 0.294335 -2.681204
v -1.869617 0.293838 -2.681259
v -1.859839 0.296242 -2.680392
v -1.856533 0.292500 -2.680537
v -1.866514 0.295969 -2.680852
v -1.867584 0.295647 -2.680953
v -1.866390 0.291743 -2.681252
v -1.862421 0.291337 -2.681032
v -1.861033 0.291394 -2.680937
v -1.855945 0.294889 -2.680269
v -1.869466 0.293343 -2.681297
v -1.861179 0.296379 -2.680466
v -1.862570 0.296420 -2.680552
v -1.856616 0.295324 -2.680270
v -1.852496 0.293738 -2.672465
v -1.852673 0.293939 -2.672457
v -1.874524 0.294184 -2.673855
v -1.874931 0.294103 -2.673889
v -1.875961 0.293396 -2.674025
v -1.875911 0.293232 -2.674037
v -1.852921 0.292930 -2.672571
v -1.852649 0.293117 -2.672535
v -1.874890 0.292700 -2.674022
v -1.874479 0.292625 -2.674003
v -1.852956 0.294123 -2.672458
v -1.853335 0.294283 -2.672467
v -1.875286 0.293996 -2.673923
v -1.875576 0.293867 -2.673954
v -1.875771 0.293074 -2.674043
v -1.852483 0.293319 -2.672505
v -1.852432 0.293529 -2.672481
v -1.853742 0.292629 -2.672653
v -1.853290 0.292765 -2.672611
v -1.853795 0.294414 -2.672485
v -1.875790 0.293720 -2.673982
v -1.875549 0.292929 -2.674043
v -1.875251 0.292803 -2.674036
v -1.854259 0.292527 -2.672697
v -1.875920 0.293561 -2.674006
v -1.854318 0.294510 -2.672509
v -1.862807 0.293305 -2.674198
v -1.862685 0.293301 -2.674191
v -1.862576 0.293745 -2.674141
v -1.862698 0.293749 -2.674148
v -1.862820 0.293744 -2.674157
v -1.862563 0.293306 -2.674182
vn 0.0212 0.9916 0.1278
vn 0.0936 0.9868 0.1322
vn 0.1729 0.9750 0.1393
vn 0.2655 0.9523 0.1501
vn 0.3814 0.9094 0.1660
vn 0.5343 0.8239 0.1888
vn 0.7354 0.6414 0.2185
vn 0.9336 0.2669 0.2391
vn 0.9429 -0.2566 0.2124
vn 0.7543 -0.6387 0.1523
vn 0.5540 -0.8262 0.1024
vn 0.4000 -0.9139 0.0697
vn 0.2839 -0.9576 0.0489
vn 0.1908 -0.9810 0.0354
vn 0.1115 -0.9934 0.0268
vn 0.0393 -0.9990 0.0217
vn -0.0307 -0.9993 0.0195
vn -0.1028 -0.9945 0.0200
vn -0.1820 -0.9830 0.0236
vn -0.2748 -0.9610 0.0311
vn -0.3909 -0.9194 0.0443
vn -0.5434 -0.8368 0.0665
vn -0.7436 -0.6607 0.1025
vn -0.9422 -0.2995 0.1499
vn -0.9597 0.2164 0.1795
vn -0.7752 0.6074 0.1735
vn -0.5731 0.8044 0.1567
vn -0.4162 0.8980 0.1429
vn -0.2973 0.9454 0.1338
vn -0.2026 0.9708 0.1284
vn -0.1221 0.9845 0.1260
vn -0.0491 0.9908 0.1258
vn 0.0646 0.0958 -0.9933
vn 0.0260 0.9982 0.0541
vn 0.0985 0.9936 0.0560
vn 0.1781 0.9823 0.0577
vn 0.2714 0.9606 0.0593
vn 0.3882 0.9196 0.0606
vn 0.5435 0.8372 0.0608
vn 0.7493 0.6597 0.0574
vn 0.9562 0.2893 0.0437
vn 0.9704 -0.2411 0.0159
vn 0.7754 -0.6314 -0.0108
vn 0.5683 -0.8224 -0.0271
vn 0.4105 -0.9111 -0.0365
vn 0.2918 -0.9556 -0.0424
vn 0.1973 -0.9792 -0.0464
vn 0.1171 -0.9919 -0.0495
vn 0.0444 -0.9977 -0.0520
vn -0.0260 -0.9982 -0.0541
vn -0.0986 -0.9936 -0.0560
vn -0.1781 -0.9823 -0.0577
vn -0.2713 -0.9607 -0.0593
vn -0.3883 -0.9195 -0.0606
vn -0.5435 -0.8372 -0.0608
vn -0.7491 -0.6599 -0.0574
vn -0.9563 -0.2889 -0.0437
vn -0.9705 0.2407 -0.0158
vn -0.7752 0.6316 0.0108
vn -0.5683 0.8224 0.0271
vn -0.4105 0.9111 0.0365
vn -0.2917 0.9556 0.0424
vn -0.1973 0.9792 0.0464
vn -0.0647 -0.0958 0.9933
vn -0.1171 0.9919 0.0495
vn -0.0444 0.9977 0.0520
vn 0.9564 0.2888 0.0437
vn -0.9563 -0.2892 -0.0437
vn -0.3882 -0.9196 -0.0606
vn -0.5684 0.8223 0.0271
vn -0.5434 -0.8372 -0.0608
vn 0.2918 -0.9555 -0.0424
vn 0.0443 -0.9977 -0.0520
vn 0.3883 0.9195 0.0606
vn 0.5684 -0.8223 -0.0271
vn 0.9563 0.2890 0.0437
vn 0.5434 0.8372 0.0608
vn -0.9704 0.2408 -0.0159
vn -0.2714 -0.9607 -0.0593
vn -0.7753 0.6315 0.0108
vn -0.7494 -0.6597 -0.0574
vn -0.0985 -0.9936 -0.0560
vn 0.9704 -0.2409 0.0159
vn 0.1172 -0.9919 -0.0495
vn 0.7492 0.6599 0.0574
vn 0.2713 0.9607 0.0593
vn 0.7753 -0.6315 -0.0108
vn -0.3883 -0.9196 -0.0606
vn -0.1172 0.9919 0.0495
vn -0.9705 0.2407 -0.0159
vn 0.7492 0.6598 0.0574
vn -0.2714 -0.9606 -0.0593
vn 0.3883 0.9196 0.0606
vn -0.1974 0.9792 0.0464
vn -0.9563 -0.2891 -0.0437
vn 0.7753 -0.6314 -0.0108
vn 0.2917 -0.9556 -0.0424
vn -0.0443 0.9977 0.0520
vn 0.1974 -0.9792 -0.0464
vn -0.7493 -0.6598 -0.0574
vn -0.2918 0.9556 0.0424
vn -0.9564 -0.2886 -0.0437
vn 0.5434 0.8373 0.0608
vn 0.9705 -0.2407 0.0159
vn -0.1780 -0.9823 -0.0577
vn -0.4106 0.9111 0.0365
vn 0.1974 -0.9792 -0.0465
vn -0.7491 -0.6600 -0.0574
vn 0.9563 0.2891 0.0437
vn 0.7494 0.6596 0.0574
vn 0.0443 -0.9977 -0.0519
vn -0.7259 -0.6500 0.2250
vn 0.1958 -0.9803 -0.0259
vn 0.7350 0.1749 0.6552
vn -0.5719 0.7912 0.2166
vn 0.1769 0.9811 0.0781
vn -0.3908 -0.9196 0.0416
vn 0.3803 -0.9019 0.2048
vn -0.5404 -0.8320 0.1252
vn 0.6284 0.5336 0.5660
vn -0.9169 0.1860 0.3532
vn -0.7606 0.5766 0.2985
vn -0.2939 0.9531 0.0730
vn -0.2728 -0.9616 -0.0290
vn 0.4999 -0.7939 0.3460
vn 0.3659 0.8807 0.3008
vn -0.1948 0.9808 0.0120
vn 0.4904 0.7568 0.4322
vn -0.8982 -0.2992 0.3221
vn 0.7352 -0.2520 0.6292
vn 0.6322 -0.5912 0.5009
vn -0.4160 0.8985 0.1401
vn -0.1760 -0.9801 -0.0920
vn 0.2629 0.9472 0.1836
vn 0.2803 -0.9564 0.0825
vn 0.0454 0.9607 -0.2740
vn -0.0032 -0.9229 -0.3851
vn 0.0639 -0.9215 -0.3831
vn -0.0202 0.9608 -0.2765
usemtl Material.065
s off
f 1//1 2//1 3//1
f 3//2 2//2 4//2
f 4//3 2//3 5//3
f 5//4 2//4 6//4
f 6//5 2//5 7//5
f 7//6 2//6 8//6
f 8//7 2//7 9//7
f 9//8 2//8 10//8
f 10//9 2//9 11//9
f 11//10 2//10 12//10
f 12//11 2//11 13//11
f 13//12 2//12 14//12
f 14//13 2//13 15//13
f 15//14 2//14 16//14
f 16//15 2//15 17//15
f 17//16 2//16 18//16
f 18//17 2//17 19//17
f 19//18 2//18 20//18
f 20//19 2//19 21//19
f 21//20 2//20 22//20
f 22//21 2//21 23//21
f 23//22 2//22 24//22
f 24//23 2//23 25//23
f 25//24 2//24 26//24
f 26//25 2//25 27//25
f 27//26 2//26 28//26
f 28//27 2//27 29//27
f 29//28 2//28 30//28
f 30//29 2//29 31//29
f 31//30 2//30 32//30
f 32//31 2//31 33//31
f 33//32 2//32 1//32
f 1//33 3//33 4//33 5//33 6//33 7//33 8//33 9//33 10//33 11//33 12//33 13//33 14//33 15//33 16//33 17//33 18//33 19//33 20//33 21//33 22//33 23//33 24//33 25//33 26//33 27//33 28//33 29//33 30//33 31//33 32//33 33//33
f 34//34 35//34 36//34 37//34
f 37//35 36//35 38//35 39//35
f 39//36 38//36 40//36 41//36
f 41//37 40//37 42//37 43//37
f 43//38 42//38 44//38 45//38
f 45//39 44//39 46//39 47//39
f 47//40 46//40 48//40 49//40
f 49//41 48//41 50//41 51//41
f 51//42 50//42 52//42 53//42
f 53//43 52//43 54//43 55//43
f 55//44 54//44 56//44 57//44
f 57//45 56//45 58//45 59//45
f 59//46 58//46 60//46 61//46
f 61//47 60//47 62//47 63//47
f 63//48 62//48 64//48 65//48
f 65//49 64//49 66//49 67//49
f 67//50 66//50 68//50 69//50
f 69//51 68//51 70//51 71//51
f 71//52 70//52 72//52 73//52
f 73//53 72//53 74//53 75//53
f 75//54 74//54 76//54 77//54
f 77//55 76//55 78//55 79//55
f 79//56 78//56 80//56 81//56
f 81//57 80//57 82//57 83//57
f 83//58 82//58 84//58 85//58
f 85//59 84//59 86//59 87//59
f 87//60 86//60 88//60 89//60
f 89//61 88//61 90//61 91//61
f 91//62 90//62 92//62 93//62
f 93//63 92//63 94//63 95//63
f 36//64 35//64 96//64 94//64 92//64 90//64 88//64 86//64 84//64 82//64 80//64 78//64 76//64 74//64 72//64 70//64 68//64 66//64 64//64 62//64 60//64 58//64 56//64 54//64 52//64 50//64 48//64 46//64 44//64 42//64 40//64 38//64
f 95//65 94//65 96//65 97//65
f 97//66 96//66 35//66 34//66
f 97//66 34//66 98//66 99//66
f 100//67 101//67 102//67 103//67
f 91//62 93//62 104//62 105//62
f 93//63 95//63 106//63 104//63
f 81//68 83//68 107//68 108//68
f 75//69 77//69 109//69 110//69
f 87//70 89//70 111//70 112//70
f 77//71 79//71 113//71 109//71
f 59//72 61//72 114//72 115//72
f 71//52 73//52 116//52 117//52
f 65//73 67//73 118//73 119//73
f 61//47 63//47 120//47 114//47
f 43//74 45//74 121//74 122//74
f 55//75 57//75 123//75 124//75
f 49//76 51//76 101//76 100//76
f 39//36 41//36 125//36 126//36
f 45//77 47//77 127//77 121//77
f 34//34 37//34 128//34 98//34
f 95//65 97//65 99//65 106//65
f 89//61 91//61 105//61 111//61
f 83//78 85//78 129//78 107//78
f 73//79 75//79 110//79 116//79
f 85//80 87//80 112//80 129//80
f 67//50 69//50 130//50 118//50
f 79//81 81//81 108//81 113//81
f 69//82 71//82 117//82 130//82
f 51//83 53//83 131//83 101//83
f 63//84 65//84 119//84 120//84
f 57//45 59//45 115//45 123//45
f 47//85 49//85 100//85 127//85
f 41//86 43//86 122//86 125//86
f 53//87 55//87 124//87 131//87
f 37//35 39//35 126//35 128//35
f 132//59 133//59 134//59 135//59
f 118//50 130//50 136//50 137//50
f 112//60 111//60 138//60 133//60
f 130//82 117//82 139//82 136//82
f 126//36 125//36 140//36 141//36
f 110//88 109//88 142//88 143//88
f 123//45 115//45 144//45 145//45
f 106//89 99//89 146//89 147//89
f 109//71 113//71 148//71 142//71
f 107//90 129//90 132//90 149//90
f 119//73 118//73 137//73 150//73
f 127//91 100//91 103//91 151//91
f 98//34 128//34 152//34 153//34
f 129//59 112//59 133//59 132//59
f 105//62 104//62 154//62 155//62
f 116//92 110//92 143//92 156//92
f 124//75 123//75 145//75 157//75
f 128//35 126//35 141//35 152//35
f 122//93 121//93 158//93 159//93
f 104//94 106//94 147//94 154//94
f 120//84 119//84 150//84 160//84
f 121//77 127//77 151//77 158//77
f 108//95 107//95 149//95 161//95
f 101//83 131//83 162//83 102//83
f 131//96 124//96 157//96 162//96
f 111//61 105//61 155//61 138//61
f 117//52 116//52 156//52 139//52
f 125//86 122//86 159//86 140//86
f 115//97 114//97 163//97 144//97
f 99//98 98//98 153//98 146//98
f 114//99 120//99 160//99 163//99
f 113//100 108//100 161//100 148//100
f 155//101 154//101 164//101 165//101
f 152//35 141//35 166//35 167//35
f 156//92 143//92 168//92 169//92
f 157//44 145//44 170//44 171//44
f 159//38 158//38 172//38 173//38
f 154//63 147//63 174//63 164//63
f 161//102 149//102 175//102 176//102
f 160//48 150//48 177//48 178//48
f 158//103 151//103 179//103 172//103
f 102//104 162//104 180//104 181//104
f 139//105 156//105 169//105 182//105
f 162//87 157//87 171//87 180//87
f 138//106 155//106 165//106 183//106
f 144//72 163//72 184//72 185//72
f 140//86 159//86 173//86 186//86
f 146//98 153//98 187//98 188//98
f 163//107 160//107 178//107 184//107
f 148//108 161//108 176//108 189//108
f 103//109 102//109 181//109 190//109
f 137//50 136//50 191//50 192//50
f 133//60 138//60 183//60 134//60
f 136//82 139//82 182//82 191//82
f 141//36 140//36 186//36 166//36
f 143//54 142//54 193//54 168//54
f 145//45 144//45 185//45 170//45
f 147//65 146//65 188//65 174//65
f 142//55 148//55 189//55 193//55
f 151//110 103//110 190//110 179//110
f 149//78 132//78 135//78 175//78
f 150//111 137//111 192//111 177//111
f 153//34 152//34 167//34 187//34
f 189//112 176//112 194//112 195//112
f 184//113 178//113 196//113 197//113
f 190//114 181//114 198//114 199//114
f 134//115 183//115 200//115 201//115
f 166//116 186//116 202//116 203//116
f 168//117 193//117 204//117 205//117
f 170//118 185//118 206//118 207//118
f 193//119 189//119 195//119 204//119
f 179//120 190//120 199//120 208//120
f 175//121 135//121 209//121 210//121
f 135//122 134//122 201//122 209//122
f 165//123 164//123 211//123 212//123
f 169//124 168//124 205//124 213//124
f 171//125 170//125 207//125 214//125
f 173//126 172//126 215//126 216//126
f 164//127 174//127 217//127 211//127
f 172//128 179//128 208//128 215//128
f 176//129 175//129 210//129 194//129
f 181//130 180//130 218//130 198//130
f 180//131 171//131 214//131 218//131
f 183//132 165//132 212//132 200//132
f 182//133 169//133 213//133 219//133
f 186//134 173//134 216//134 202//134
f 185//135 184//135 197//135 206//135
f 187//136 167//136 220//136 221//136
f 192//137 191//137 222//137 223//137
f 177//138 192//138 223//138 224//138
f 188//139 187//139 221//139 225//139
